<svg id="SvgjsSvg1030" width="288" height="288" xmlns="http://www.w3.org/2000/svg" version="1.1" xmlns:xlink="http://www.w3.org/1999/xlink" xmlns:svgjs="http://svgjs.com/svgjs"><defs id="SvgjsDefs1031"></defs><g id="SvgjsG1032"><svg xmlns="http://www.w3.org/2000/svg" viewBox="0 0 24 24" width="288" height="288"><path fill="none" d="M0 0h24v24H0z"></path><path d="M12 22C6.477 22 2 17.523 2 12S6.477 2 12 2s10 4.477 10 10-4.477 10-10 10zm4.82-4.924A7 7 0 0 0 9.032 5.658l.975 1.755A5 5 0 0 1 17 12h-3l2.82 5.076zm-1.852 1.266l-.975-1.755A5 5 0 0 1 7 12h3L7.18 6.924a7 7 0 0 0 7.788 11.418z" fill="#ffffff" class="color000 svgShape"></path></svg></g></svg>